<svg xmlns="http://www.w3.org/2000/svg" width="1200" height="900" viewBox="0 0 1200 900" font-family="'Segoe UI', 'Helvetica Neue', Arial, sans-serif">
  <!-- Synthetic placeholder preview authored for the Zift site (sample project). -->
  <defs>
    <linearGradient id="accent" x1="0" y1="0" x2="1" y2="1">
      <stop offset="0" stop-color="#FF6A2E"/>
      <stop offset="1" stop-color="#FFB454"/>
    </linearGradient>
    <pattern id="dots" width="28" height="28" patternUnits="userSpaceOnUse">
      <circle cx="2" cy="2" r="1.4" fill="#ffffff" fill-opacity="0.07"/>
    </pattern>
    <clipPath id="canvas"><path d="M64 136H1136V814a22 22 0 0 1-22 22H86a22 22 0 0 1-22-22z"/></clipPath>
    <radialGradient id="glow" cx="0.4" cy="0.5" r="0.5">
      <stop offset="0" stop-color="#FF6A2E" stop-opacity="0.12"/>
      <stop offset="1" stop-color="#FF6A2E" stop-opacity="0"/>
    </radialGradient>
  </defs>

  <rect width="1200" height="900" fill="#0d0c0b"/>
  <rect x="64" y="64" width="1072" height="772" rx="22" fill="#141312" stroke="#ffffff" stroke-opacity="0.09"/>
  <g clip-path="url(#canvas)"><rect x="64" y="136" width="1072" height="700" fill="url(#dots)"/><rect x="64" y="136" width="1072" height="700" fill="url(#glow)"/></g>
  <g fill="#ffffff" fill-opacity="0.14"><circle cx="100" cy="100" r="6"/><circle cx="122" cy="100" r="6"/><circle cx="144" cy="100" r="6"/></g>
  <text x="200" y="106" font-size="17" fill="#f4f1ec" fill-opacity="0.55">Relay Ops · Ticket triage</text>
  <text x="934" y="106" text-anchor="end" font-size="15" fill="#f4f1ec" fill-opacity="0.5">Run history</text>
  <rect x="960" y="82" width="152" height="38" rx="19" fill="url(#accent)"/>
  <text x="1036" y="107" text-anchor="middle" font-size="15" font-weight="600" fill="#0d0c0b">Publish</text>
  <path d="M64 136H1136" stroke="#ffffff" stroke-opacity="0.08"/>

  <!-- Connectors (idle) -->
  <g fill="none" stroke="#ffffff" stroke-opacity="0.18" stroke-width="2">
    <path d="M570 430C600 430 590 270 620 270"/>
    <path d="M570 430C600 430 590 590 620 590"/>
    <path d="M830 270H880"/>
    <path d="M830 590H880"/>
  </g>
  <!-- Active run path -->
  <g fill="none" stroke="#FF8A3D" stroke-width="2.5">
    <path d="M310 430H360"/>
    <path d="M570 430H620"/>
    <path d="M830 430H880"/>
  </g>

  <!-- Nodes -->
  <g font-size="15">
    <rect x="100" y="392" width="210" height="76" rx="16" fill="#1b1917" stroke="#ffffff" stroke-opacity="0.12"/>
    <circle cx="132" cy="430" r="16" fill="#ffffff" fill-opacity="0.08"/>
    <path d="M125 430h14M132 423v14" stroke="#f4f1ec" stroke-opacity="0.7" stroke-width="2" stroke-linecap="round"/>
    <text x="160" y="425" fill="#f4f1ec">New ticket</text>
    <text x="160" y="447" font-size="13" fill="#f4f1ec" fill-opacity="0.45">Trigger · Helpdesk</text>

    <rect x="360" y="392" width="210" height="76" rx="16" fill="#201b17" stroke="url(#accent)" stroke-width="1.5"/>
    <circle cx="392" cy="430" r="16" fill="url(#accent)"/>
    <path d="M386 430l6-10 6 10-6 10z" fill="#0d0c0b"/>
    <text x="420" y="425" fill="#f4f1ec">Classify intent</text>
    <text x="420" y="447" font-size="13" fill="#FFB454">LLM · 3 routes</text>

    <rect x="620" y="232" width="210" height="76" rx="16" fill="#1b1917" stroke="#ffffff" stroke-opacity="0.12"/>
    <circle cx="652" cy="270" r="16" fill="#ffffff" fill-opacity="0.08"/>
    <text x="680" y="265" fill="#f4f1ec">Refund request</text>
    <text x="680" y="287" font-size="13" fill="#f4f1ec" fill-opacity="0.45">Condition</text>

    <rect x="620" y="392" width="210" height="76" rx="16" fill="#1b1917" stroke="#FF8A3D" stroke-opacity="0.6"/>
    <circle cx="652" cy="430" r="16" fill="#ffffff" fill-opacity="0.08"/>
    <text x="680" y="425" fill="#f4f1ec">Question</text>
    <text x="680" y="447" font-size="13" fill="#f4f1ec" fill-opacity="0.45">Condition</text>

    <rect x="620" y="552" width="210" height="76" rx="16" fill="#1b1917" stroke="#ffffff" stroke-opacity="0.12"/>
    <circle cx="652" cy="590" r="16" fill="#ffffff" fill-opacity="0.08"/>
    <text x="680" y="585" fill="#f4f1ec">Bug report</text>
    <text x="680" y="607" font-size="13" fill="#f4f1ec" fill-opacity="0.45">Condition</text>

    <rect x="880" y="232" width="210" height="76" rx="16" fill="#1b1917" stroke="#ffffff" stroke-opacity="0.12"/>
    <circle cx="912" cy="270" r="16" fill="#ffffff" fill-opacity="0.08"/>
    <text x="940" y="265" fill="#f4f1ec">Human review</text>
    <text x="940" y="287" font-size="13" fill="#f4f1ec" fill-opacity="0.45">Approval</text>

    <rect x="880" y="392" width="210" height="76" rx="16" fill="#201b17" stroke="url(#accent)" stroke-width="1.5"/>
    <circle cx="912" cy="430" r="16" fill="url(#accent)"/>
    <path d="M906 430l6-10 6 10-6 10z" fill="#0d0c0b"/>
    <text x="940" y="425" fill="#f4f1ec">Draft answer</text>
    <text x="940" y="447" font-size="13" fill="#FFB454">LLM · Knowledge base</text>

    <rect x="880" y="552" width="210" height="76" rx="16" fill="#1b1917" stroke="#ffffff" stroke-opacity="0.12"/>
    <circle cx="912" cy="590" r="16" fill="#ffffff" fill-opacity="0.08"/>
    <text x="940" y="585" fill="#f4f1ec">Issue tracker</text>
    <text x="940" y="607" font-size="13" fill="#f4f1ec" fill-opacity="0.45">Create task</text>
  </g>
  <rect x="936" y="364" width="84" height="22" rx="11" fill="#FF6A2E" fill-opacity="0.16"/>
  <circle cx="952" cy="375" r="4" fill="#FFB454"/>
  <text x="962" y="380" font-size="12" fill="#FFB454">Running</text>

  <!-- Ports -->
  <g fill="#141312" stroke="#f4f1ec" stroke-opacity="0.35" stroke-width="2">
    <circle cx="310" cy="430" r="5"/><circle cx="360" cy="430" r="5"/><circle cx="570" cy="430" r="5"/>
    <circle cx="620" cy="270" r="5"/><circle cx="620" cy="430" r="5"/><circle cx="620" cy="590" r="5"/>
    <circle cx="830" cy="270" r="5"/><circle cx="830" cy="430" r="5"/><circle cx="830" cy="590" r="5"/>
    <circle cx="880" cy="270" r="5"/><circle cx="880" cy="430" r="5"/><circle cx="880" cy="590" r="5"/>
  </g>

  <!-- Run log -->
  <rect x="100" y="700" width="990" height="100" rx="16" fill="#181614" stroke="#ffffff" stroke-opacity="0.07"/>
  <text x="128" y="738" font-size="15" font-weight="600" fill="#f4f1ec">Current run</text>
  <text x="128" y="764" font-size="13" fill="#f4f1ec" fill-opacity="0.45">Ticket #10293 · started 09:14</text>
  <g font-size="13" fill="#f4f1ec" fill-opacity="0.8">
    <rect x="420" y="732" width="150" height="36" rx="18" fill="#ffffff" fill-opacity="0.06"/>
    <path d="M440 750l5 5 9-10" fill="none" stroke="#FFB454" stroke-width="2" stroke-linecap="round" stroke-linejoin="round"/>
    <text x="464" y="755">Received</text>
    <rect x="586" y="732" width="150" height="36" rx="18" fill="#ffffff" fill-opacity="0.06"/>
    <path d="M606 750l5 5 9-10" fill="none" stroke="#FFB454" stroke-width="2" stroke-linecap="round" stroke-linejoin="round"/>
    <text x="630" y="755">Classified</text>
    <rect x="752" y="732" width="170" height="36" rx="18" fill="#FF6A2E" fill-opacity="0.14" stroke="#FF6A2E" stroke-opacity="0.5"/>
    <circle cx="776" cy="750" r="5" fill="#FFB454"/>
    <text x="792" y="755" fill="#FFB454" fill-opacity="1">Drafting answer</text>
  </g>
</svg>
